HIERARCHY
ROOT Hips
{
	OFFSET -0.001795 -0.223333 0.028219
	CHANNELS 6 Xposition Yposition Zposition Zrotation Yrotation Xrotation 
	JOINT LeftUpLeg
	{
		OFFSET 0.069520 -0.091406 -0.006815
		CHANNELS 3 Zrotation Yrotation Xrotation
		JOINT LeftLeg
		{
			OFFSET 0.034277 -0.375199 -0.004496
			CHANNELS 3 Zrotation Yrotation Xrotation
			JOINT LeftFoot
			{
				OFFSET -0.013596 -0.397961 -0.043693
				CHANNELS 3 Zrotation Yrotation Xrotation
				JOINT LeftToe
				{
					OFFSET 0.026358 -0.055791 0.119288
					CHANNELS 3 Zrotation Yrotation Xrotation
					End Site
					{
						OFFSET 0.000000 0.000000 0.000000
					}
				}
			}
		}
	}
	JOINT RightUpLeg
	{
		OFFSET -0.067670 -0.090522 -0.004320
		CHANNELS 3 Zrotation Yrotation Xrotation
		JOINT RightLeg
		{
			OFFSET -0.038290 -0.382569 -0.008850
			CHANNELS 3 Zrotation Yrotation Xrotation
			JOINT RightFoot
			{
				OFFSET 0.015774 -0.398415 -0.042312
				CHANNELS 3 Zrotation Yrotation Xrotation
				JOINT RightToe
				{
					OFFSET -0.025372 -0.048144 0.123348
					CHANNELS 3 Zrotation Yrotation Xrotation
					End Site
					{
						OFFSET 0.000000 0.000000 0.000000
					}
				}
			}
		}
	}
	JOINT Spine
	{
		OFFSET -0.002533 0.108963 -0.026696
		CHANNELS 3 Zrotation Yrotation Xrotation
		JOINT Spine1
		{
			OFFSET 0.005487 0.135180 0.001092
			CHANNELS 3 Zrotation Yrotation Xrotation
			JOINT Spine2
			{
				OFFSET 0.001457 0.052922 0.025425
				CHANNELS 3 Zrotation Yrotation Xrotation
				JOINT Neck
				{
					OFFSET -0.002778 0.213870 -0.042857
					CHANNELS 3 Zrotation Yrotation Xrotation
					JOINT Head
					{
						OFFSET 0.005152 0.064970 0.051349
						CHANNELS 3 Zrotation Yrotation Xrotation
						End Site
						{
							OFFSET 0.000000 0.000000 0.000000
						}
					}
				}
				JOINT LeftShoulder
				{
					OFFSET 0.078845 0.121749 -0.034090
					CHANNELS 3 Zrotation Yrotation Xrotation
					JOINT LeftArm
					{
						OFFSET 0.090977 0.030469 -0.008868
						CHANNELS 3 Zrotation Yrotation Xrotation
						JOINT LeftForeArm
						{
							OFFSET 0.259612 -0.012772 -0.027456
							CHANNELS 3 Zrotation Yrotation Xrotation
							JOINT LeftHand
							{
								OFFSET 0.249234 0.008986 -0.001171
								CHANNELS 3 Zrotation Yrotation Xrotation
								End Site
								{
									OFFSET 0.000000 0.000000 0.000000
								}
							}
						}
					}
				}
				JOINT RightShoulder
				{
					OFFSET -0.081759 0.118833 -0.038615
					CHANNELS 3 Zrotation Yrotation Xrotation
					JOINT RightArm
					{
						OFFSET -0.096012 0.032551 -0.009143
						CHANNELS 3 Zrotation Yrotation Xrotation
						JOINT RightForeArm
						{
							OFFSET -0.253742 -0.013329 -0.021401
							CHANNELS 3 Zrotation Yrotation Xrotation
							JOINT RightHand
							{
								OFFSET -0.255298 0.007772 -0.005559
								CHANNELS 3 Zrotation Yrotation Xrotation
								End Site
								{
									OFFSET 0.000000 0.000000 0.000000
								}
							}
						}
					}
				}
			}
		}
	}
}
MOTION
Frames: 10
Frame Time: 0.050000
0.000000 0.951828 0.000000 0.296345 -5.026793 4.249940 -2.941562 0.414455 3.024997 4.262518 0.444851 -12.307330 -3.781508 -2.438121 11.809966 0.000000 0.000000 0.000000 1.223955 0.035360 -0.838507 -2.377212 -0.088941 -5.383862 0.954629 -3.893773 11.997617 0.000000 0.000000 0.000000 3.883976 -0.032272 -0.665724 -1.521128 0.732160 0.517300 -0.725938 1.568042 2.161530 1.577875 -0.071104 -13.632167 0.000000 0.000000 0.000000 -14.499066 -6.958616 2.154494 -5.692835 4.343661 -0.623635 11.669071 3.714925 0.312069 0.000000 0.000000 0.000000 10.755223 5.482569 1.316270 8.538003 -5.320313 -0.832335 -9.506273 4.768576 -0.055366 0.000000 0.000000 0.000000 
0.000123 0.950328 0.001587 0.246138 -4.744738 4.429231 -1.745572 0.437106 3.670318 2.229451 0.540553 -13.627594 -4.064956 -2.811679 11.966334 0.000000 0.000000 0.000000 0.989272 0.011656 -0.538604 -2.436723 -0.102818 -5.688234 1.604473 -2.254229 11.205206 0.000000 0.000000 0.000000 4.170079 -0.060496 -0.417917 -1.740307 0.861325 2.905775 -1.677886 1.320405 -0.765327 1.186868 0.360251 -15.415604 0.000000 0.000000 0.000000 -13.034350 -6.618735 1.881362 -5.565191 3.918206 -0.576041 11.354817 3.676679 0.296130 0.000000 0.000000 0.000000 10.949905 4.398435 0.791138 7.577740 -6.936096 -0.692202 -8.494790 5.861247 -0.075494 0.000000 0.000000 0.000000 
-0.000045 0.949485 0.002922 0.126932 -5.415644 4.190933 -1.066119 0.383351 3.480688 1.166719 0.479343 -12.523901 -3.565048 -2.380636 11.148254 0.000000 0.000000 0.000000 0.960710 0.047760 -0.880360 -2.628687 -0.035139 -4.655055 2.274489 -0.860241 10.840529 0.000000 0.000000 0.000000 4.302571 -0.078474 -0.166171 -2.601692 1.242472 0.073294 -0.946461 2.339245 2.531553 1.497198 0.066602 -14.090169 0.000000 0.000000 0.000000 -11.625461 -7.293912 2.267849 -6.717078 4.568900 -0.772676 10.661012 3.945145 0.280077 0.000000 0.000000 0.000000 10.383104 5.348649 1.377561 8.039180 -7.170210 -0.812614 -9.374530 4.009032 -0.007274 0.000000 0.000000 0.000000 
-0.000327 0.949710 0.004286 0.125197 -5.685951 4.378989 -0.566647 0.383307 3.687909 0.249132 0.514137 -13.037980 -3.555013 -2.260350 11.480652 0.000000 0.000000 0.000000 0.586267 0.031911 -0.605636 -1.980891 -0.111050 -5.412513 2.508687 -0.595336 11.175377 0.000000 0.000000 0.000000 4.206921 -0.047251 -0.567211 -3.329525 1.606879 0.647727 -0.574112 2.293012 2.158989 0.842136 0.508087 -14.866154 0.000000 0.000000 0.000000 -12.014494 -7.940098 2.593635 -7.084903 6.197187 -0.840702 11.675895 3.747753 0.310842 0.000000 0.000000 0.000000 10.993428 6.354183 1.760223 6.733952 -9.749850 -0.620589 -8.384885 3.658915 0.019789 0.000000 0.000000 0.000000 
-0.000702 0.949997 0.005520 0.158457 -5.305598 4.070016 -0.476299 0.431430 4.199996 0.123192 0.520871 -13.260670 -3.803245 -2.570546 11.636580 0.000000 0.000000 0.000000 0.524850 0.006780 -0.319778 -1.841070 -0.101032 -5.097807 2.324072 -0.868691 11.102037 0.000000 0.000000 0.000000 4.101788 -0.076004 -0.135291 -3.477255 1.659051 0.043432 -0.586535 2.425418 2.407386 1.087361 0.343774 -14.328332 0.000000 0.000000 0.000000 -11.708467 -8.115575 2.633414 -7.638742 6.388621 -0.933567 11.647322 2.823347 0.244258 0.000000 0.000000 0.000000 10.893026 6.090360 1.697565 7.241625 -9.872601 -0.715000 -8.632853 2.523046 0.070983 0.000000 0.000000 0.000000 
-0.000939 0.949810 0.006656 0.263221 -4.664184 3.916402 -0.647733 0.453636 4.346472 0.353200 0.510897 -13.213217 -4.100984 -3.026311 11.563475 0.000000 0.000000 0.000000 -0.033291 -0.012623 0.120536 -0.915269 -0.157908 -5.334248 2.060322 -1.290195 11.106898 0.000000 0.000000 0.000000 3.603121 -0.080948 0.069525 -3.528937 1.702335 0.746347 -0.097401 2.042330 1.947736 0.601787 0.702026 -15.312622 0.000000 0.000000 0.000000 -12.058787 -7.937446 2.555014 -8.198518 6.327881 -1.020795 12.510690 2.756985 0.267404 0.000000 0.000000 0.000000 10.448214 6.540802 1.888219 7.965091 -10.408270 -0.841438 -9.095244 1.558025 0.117481 0.000000 0.000000 0.000000 
-0.001020 0.950043 0.007686 0.370004 -4.706932 3.869512 -0.670427 0.453697 4.333955 0.183874 0.501043 -12.988121 -4.085818 -3.013200 11.548618 0.000000 0.000000 0.000000 -0.205499 -0.028276 0.365494 -0.825624 -0.172913 -5.585948 2.114044 -1.241884 11.215820 0.000000 0.000000 0.000000 3.562595 -0.104155 0.408228 -3.606847 1.737493 0.640200 -0.076375 2.346933 2.157608 0.702438 0.678234 -15.483563 0.000000 0.000000 0.000000 -12.615563 -7.692814 2.388357 -8.672029 6.684278 -1.104899 12.497085 2.548274 0.247673 0.000000 0.000000 0.000000 10.559029 6.174634 1.765072 8.590452 -10.281083 -0.955057 -8.679467 0.872166 0.147737 0.000000 0.000000 0.000000 
-0.000762 0.949950 0.008856 0.199883 -5.027084 3.811644 -0.421903 0.436412 4.284606 -0.017754 0.485920 -12.569532 -3.856343 -2.791086 11.239602 0.000000 0.000000 0.000000 -0.318519 -0.055293 0.713223 -0.389536 -0.208252 -5.996678 2.337034 -0.931240 11.392357 0.000000 0.000000 0.000000 4.044237 -0.156625 0.962309 -3.912853 1.889090 0.682783 -0.053133 2.777983 2.036387 1.210215 0.444783 -16.030882 0.000000 0.000000 0.000000 -13.521365 -7.595589 2.267383 -9.377453 6.886805 -1.221715 12.762069 2.798142 0.270028 0.000000 0.000000 0.000000 11.379499 6.169197 1.774611 9.179812 -10.291790 -1.061494 -9.016680 0.238027 0.185582 0.000000 0.000000 0.000000 
-0.000316 0.949884 0.010183 0.182137 -5.317627 3.826647 -0.457256 0.437686 4.269734 -0.034950 0.480105 -12.371150 -3.683290 -2.594717 11.083318 0.000000 0.000000 0.000000 -0.599837 -0.064689 0.975954 0.029875 -0.238432 -6.398999 2.527144 -0.669759 11.541376 0.000000 0.000000 0.000000 4.335735 -0.190334 1.291278 -3.953144 1.916138 0.846674 -0.374618 3.248272 1.876534 1.696730 0.233578 -16.441079 0.000000 0.000000 0.000000 -14.259310 -7.636246 2.180820 -10.638566 6.951402 -1.423509 12.754631 3.309723 0.303018 0.000000 0.000000 0.000000 12.408182 5.782935 1.627316 10.002151 -10.018380 -1.202835 -9.670757 0.120512 0.208775 0.000000 0.000000 0.000000 
0.000153 0.949486 0.011625 0.068966 -5.457422 3.952248 -0.344292 0.439454 4.338354 -0.115451 0.489364 -12.526465 -3.598444 -2.511803 10.971200 0.000000 0.000000 0.000000 -0.727324 -0.072400 1.142354 0.384718 -0.262608 -6.784861 2.630845 -0.522917 11.620883 0.000000 0.000000 0.000000 4.627082 -0.223224 1.570186 -4.048520 1.955209 0.640445 -0.376899 3.367127 1.963657 2.076404 0.041329 -16.739648 0.000000 0.000000 0.000000 -15.115241 -7.298126 1.981215 -11.914215 7.010415 -1.639854 13.001159 3.735226 0.343834 0.000000 0.000000 0.000000 13.379128 5.645165 1.540153 11.012907 -9.707540 -1.370266 -10.201987 0.012385 0.226940 0.000000 0.000000 0.000000 
